HIERARCHY
ROOT Hips
{
 OFFSET 0.000000 0.000000 0.000000
 CHANNELS 6 Xposition Yposition Zposition Yrotation Xrotation Zrotation
 JOINT Chest
 {
  OFFSET 0.000000 10.354800 0.006500
  CHANNELS 3 Yrotation Xrotation Zrotation
  JOINT Chest2
  {
   OFFSET 0.000000 10.435800 -0.013200
   CHANNELS 3 Yrotation Xrotation Zrotation
   JOINT Chest3
   {
    OFFSET 0.000000 10.393700 0.000000
    CHANNELS 3 Yrotation Xrotation Zrotation
    JOINT Chest4
    {
     OFFSET 0.000000 10.383100 0.000000
     CHANNELS 3 Yrotation Xrotation Zrotation
     JOINT Neck
     {
      OFFSET 0.000000 15.694000 0.000000
      CHANNELS 3 Yrotation Xrotation Zrotation
      JOINT Head
      {
       OFFSET 0.000000 9.711000 -0.028000
       CHANNELS 3 Yrotation Xrotation Zrotation
       End Site
       {
        OFFSET 0.000000 18.578700 -0.014800
       }
      }
     }
     JOINT RightCollar
     {
      OFFSET -3.157200 10.367500 0.000000
      CHANNELS 3 Yrotation Xrotation Zrotation
      JOINT RightShoulder
      {
       OFFSET -14.482500 0.000000 0.000000
       CHANNELS 3 Yrotation Xrotation Zrotation
       JOINT RightElbow
       {
        OFFSET 0.000000 -31.707800 0.000000
        CHANNELS 3 Yrotation Xrotation Zrotation
        JOINT RightWrist
        {
         OFFSET 0.000000 -25.659300 0.000000
         CHANNELS 3 Yrotation Xrotation Zrotation
         End Site
         {
          OFFSET 0.000000 -18.994300 0.000000
         }
        }
       }
      }
     }
     JOINT LeftCollar
     {
      OFFSET 3.157200 10.367500 0.000000
      CHANNELS 3 Yrotation Xrotation Zrotation
      JOINT LeftShoulder
      {
       OFFSET 14.482500 0.000000 0.000000
       CHANNELS 3 Yrotation Xrotation Zrotation
       JOINT LeftElbow
       {
        OFFSET 0.000000 -31.707800 0.000000
        CHANNELS 3 Yrotation Xrotation Zrotation
        JOINT LeftWrist
        {
         OFFSET 0.000000 -25.659300 0.000000
         CHANNELS 3 Yrotation Xrotation Zrotation
         End Site
         {
          OFFSET 0.000000 -18.994300 0.000000
         }
        }
       }
      }
     }
    }
   }
  }
 }
 JOINT RightHip
 {
  OFFSET -8.365600 -0.032100 -0.003200
  CHANNELS 3 Yrotation Xrotation Zrotation
  JOINT RightKnee
  {
   OFFSET 0.000000 -43.980000 0.003100
   CHANNELS 3 Yrotation Xrotation Zrotation
   JOINT RightAnkle
   {
    OFFSET 0.000000 -42.882800 0.005200
    CHANNELS 3 Yrotation Xrotation Zrotation
    JOINT RightToe
    {
     OFFSET 0.000000 -4.915500 10.826300
     CHANNELS 3 Yrotation Xrotation Zrotation
     End Site
     {
      OFFSET 0.000000 -1.517500 6.175900
     }
    }
   }
  }
 }
 JOINT LeftHip
 {
  OFFSET 8.365600 -0.032100 -0.003200
  CHANNELS 3 Yrotation Xrotation Zrotation
  JOINT LeftKnee
  {
   OFFSET 0.000000 -43.980000 0.003100
   CHANNELS 3 Yrotation Xrotation Zrotation
   JOINT LeftAnkle
   {
    OFFSET 0.000000 -42.882800 0.005200
    CHANNELS 3 Yrotation Xrotation Zrotation
    JOINT LeftToe
    {
     OFFSET 0.000000 -4.915500 10.826300
     CHANNELS 3 Yrotation Xrotation Zrotation
     End Site
     {
      OFFSET 0.000000 -1.517500 6.175900
     }
    }
   }
  }
 }
}
MOTION
Frames: 8
Frame Time: 0.008333
0.000000 91.618600 0.000000 0.000000 -5.767877 0.000000 0.000000 11.653817 0.000000 0.000000 -5.885947 0.000000 0.000000 -0.000000 0.000000 0.000000 -0.000000 0.000000 0.000000 12.528835 0.000000 0.000000 0.711642 0.000000 0.000000 -0.000000 0.000000 0.000000 0.000000 -90.000000 0.000000 -2.309062 0.000000 0.000000 2.309062 0.000000 0.000000 -0.000000 0.000000 0.000000 -0.000000 90.000000 0.000000 -2.309062 0.000000 0.000000 2.309062 0.000000 0.000000 8.520406 0.000000 0.000000 1.905762 0.000000 -0.000000 -4.658285 0.000000 0.000000 -0.000000 0.000000 0.000000 8.520406 0.000000 0.000000 1.905762 0.000000 -0.000000 -4.658285 0.000000 0.000000 -0.000000 0.000000
-0.250064 126.446919 40.084250 173.339697 -19.173055 -2.477264 0.814851 14.930885 3.986625 0.031857 1.407766 0.363716 0.058191 2.368594 0.610013 0.671491 13.308323 3.531020 -2.901603 19.438723 -1.041549 -2.847998 -5.136403 -0.445473 5.602891 3.793243 -6.203331 24.564486 -21.988979 -19.733631 -62.971638 -57.557263 96.567810 -22.781562 -11.208262 -27.766023 -1.600530 7.576060 0.152608 5.850237 1.296232 -1.813783 80.935321 -57.280531 -125.688312 25.440407 -0.742302 33.413785 9.199725 -62.810034 -5.761157 -97.633409 78.267758 -90.653427 4.061243 6.175363 -17.516897 0.004873 -0.006222 0.002212 -17.498190 -62.904663 0.575443 101.990260 84.432931 95.876353 -7.613600 -17.354384 1.282668 0.002254 0.006608 0.001024
-0.250538 126.447254 40.083336 173.341191 -19.178208 -2.471758 0.810420 14.934927 3.980773 0.031879 1.407193 0.363617 0.058620 2.365062 0.611836 0.673214 13.305357 3.532342 -2.896186 19.439563 -1.045389 -2.842913 -5.133429 -0.449784 5.599443 3.799396 -6.205088 24.558799 -21.987696 -19.733225 -62.989045 -57.557693 96.585531 -22.782762 -11.212890 -27.770479 -1.601103 7.584666 0.149837 5.847015 1.289850 -1.814917 80.948784 -57.284745 -125.699636 25.431744 -0.738126 33.401762 9.207293 -62.804420 -5.770635 -97.647884 78.269641 -90.661476 3.943957 6.177174 -17.501645 -0.002173 -0.001126 -0.000987 -17.489229 -62.900285 0.560523 102.064087 84.436488 95.950010 -7.616093 -17.378719 1.286000 0.003364 0.007514 0.001528
-0.250856 126.447340 40.083491 173.338003 -19.178412 -2.465690 0.809447 14.932879 3.975544 0.031729 1.406533 0.363446 0.059283 2.365556 0.611015 0.674524 13.306506 3.532296 -2.893216 19.436860 -1.046193 -2.843870 -5.129992 -0.449105 5.593446 3.798238 -6.209379 24.557931 -21.989666 -19.729205 -63.007294 -57.553185 96.612237 -22.779536 -11.209542 -27.782715 -1.598890 7.587304 0.150746 5.843912 1.283253 -1.815380 80.945687 -57.292007 -125.697980 25.435032 -0.740624 33.399906 9.217854 -62.803424 -5.780460 -97.650424 78.276274 -90.658055 3.859920 6.178570 -17.494652 -0.006344 0.002439 -0.002881 -17.469642 -62.904506 0.529797 102.173532 84.432545 96.067070 -7.599355 -17.415819 1.286775 0.000002 0.004603 0.000001
-0.249960 126.447534 40.083840 173.337049 -19.179590 -2.466667 0.807768 14.930239 3.977804 0.032193 1.407321 0.362908 0.057941 2.363545 0.611396 0.674264 13.305964 3.529201 -2.889030 19.440850 -1.045968 -2.835564 -5.129989 -0.453706 5.592491 3.803708 -6.204492 24.558099 -21.989388 -19.736679 -63.029000 -57.553860 96.632969 -22.773591 -11.222949 -27.785025 -1.595813 7.592409 0.149896 5.841648 1.279507 -1.811040 80.949399 -57.291650 -125.702989 25.435531 -0.740611 33.400519 9.215423 -62.804371 -5.775874 -97.652884 78.282075 -90.656743 3.830505 6.182018 -17.496365 -0.006246 0.001275 -0.002836 -17.467157 -62.902939 0.525229 102.276254 84.438129 96.173235 -7.589940 -17.462411 1.289345 0.000136 0.002460 0.000062
-0.249341 126.447650 40.084552 173.336492 -19.179779 -2.466118 0.805733 14.927016 3.978347 0.033577 1.409667 0.361960 0.054434 2.357334 0.614148 0.669279 13.304696 3.527455 -2.881899 19.447916 -1.049891 -2.825010 -5.126542 -0.459077 5.598827 3.812869 -6.205943 24.554687 -21.985711 -19.736710 -63.053666 -57.563645 96.648021 -22.772779 -11.225799 -27.777116 -1.586195 7.599678 0.149154 5.840042 1.278385 -1.810233 80.959215 -57.297700 -125.724759 25.442304 -0.755050 33.384391 9.212851 -62.808155 -5.771034 -97.663739 78.282171 -90.669235 3.839620 6.185611 -17.500458 -0.004854 -0.001075 -0.002204 -17.462094 -62.903688 0.518440 102.332989 84.439360 96.233094 -7.586159 -17.488437 1.290180 -0.000001 0.002516 -0.000000
-0.249725 126.447867 40.084825 173.337681 -19.182842 -2.460150 0.802162 14.929023 3.972052 0.031118 1.405961 0.363556 0.055423 2.356470 0.615586 0.659214 13.298769 3.530404 -2.870954 19.458725 -1.059642 -2.816964 -5.122429 -0.465168 5.609407 3.826722 -6.209617 24.549108 -21.980301 -19.737722 -63.094332 -57.581028 96.678290 -22.776970 -11.216193 -27.768643 -1.579010 7.607346 0.141127 5.846389 1.281027 -1.810386 80.957751 -57.298628 -125.728008 25.443788 -0.758106 33.375127 9.221192 -62.806051 -5.780225 -97.659886 78.283594 -90.657024 3.760231 6.192312 -17.494596 -0.011527 0.001894 -0.005234 -17.445662 -62.903125 0.496211 102.362854 84.439987 96.266356 -7.580171 -17.512085 1.289836 -0.000073 0.001510 -0.000033
-0.248623 126.448109 40.085427 173.339794 -19.185831 -2.462851 0.799245 14.924625 3.978625 0.030130 1.402713 0.366066 0.055647 2.362667 0.611552 0.655280 13.298359 3.530699 -2.862745 19.462290 -1.063722 -2.801492 -5.110954 -0.478153 5.612756 3.832777 -6.210824 24.544120 -21.979713 -19.738270 -63.102907 -57.585831 96.688256 -22.758597 -11.223054 -27.743696 -1.577157 7.610913 0.141231 5.850263 1.282272 -1.815449 80.963138 -57.302065 -125.736303 25.441305 -0.758830 33.371712 9.220332 -62.805092 -5.780211 -97.657501 78.273222 -90.656385 3.872502 6.203860 -17.508803 -0.005323 -0.002654 -0.002417 -17.442096 -62.896589 0.493257 102.404892 84.458154 96.310958 -7.570380 -17.564079 1.297880 -0.001380 -0.002631 -0.000627
